<svg width="24" height="24" viewBox="0 0 24 24" fill="none" xmlns="http://www.w3.org/2000/svg">
<path d="M19.71 12.71L13.71 18.71C13.6168 18.8032 13.5061 18.8772 13.3842 18.9277C13.2624 18.9781 13.1319 19.0041 13 19.0041C12.8681 19.0041 12.7376 18.9781 12.6158 18.9277C12.4939 18.8772 12.3832 18.8032 12.29 18.71C12.1968 18.6168 12.1228 18.5061 12.0723 18.3843C12.0219 18.2624 11.9959 18.1319 11.9959 18C11.9959 17.8681 12.0219 17.7376 12.0723 17.6158C12.1228 17.4939 12.1968 17.3832 12.29 17.29L16.59 13H5C4.73478 13 4.48043 12.8946 4.29289 12.7071C4.10536 12.5196 4 12.2652 4 12C4 11.7348 4.10536 11.4804 4.29289 11.2929C4.48043 11.1054 4.73478 11 5 11H16.59L12.29 6.71C12.1017 6.5217 11.9959 6.2663 11.9959 6C11.9959 5.7337 12.1017 5.47831 12.29 5.29C12.4783 5.1017 12.7337 4.99591 13 4.99591C13.2663 4.99591 13.5217 5.1017 13.71 5.29L19.71 11.29C19.8037 11.383 19.8781 11.4936 19.9289 11.6154C19.9797 11.7373 20.0058 11.868 20.0058 12C20.0058 12.132 19.9797 12.2627 19.9289 12.3846C19.8781 12.5064 19.8037 12.617 19.71 12.71Z" fill="white"/>
</svg>
