<svg width="24" height="24" viewBox="0 0 24 24" fill="none" xmlns="http://www.w3.org/2000/svg">
<path d="M17.71 16.29C17.8983 16.4783 18.0041 16.7337 18.0041 17C18.0041 17.2663 17.8983 17.5217 17.71 17.71C17.5217 17.8983 17.2663 18.0041 17 18.0041C16.7337 18.0041 16.4783 17.8983 16.29 17.71L12 13.41L7.71 17.71C7.52169 17.8983 7.2663 18.0041 7 18.0041C6.7337 18.0041 6.4783 17.8983 6.29 17.71C6.10169 17.5217 5.99591 17.2663 5.99591 17C5.99591 16.7337 6.10169 16.4783 6.29 16.29L10.59 12L6.29 7.71C6.10169 7.5217 5.99591 7.2663 5.99591 7C5.99591 6.7337 6.10169 6.47831 6.29 6.29C6.4783 6.1017 6.7337 5.99591 7 5.99591C7.2663 5.99591 7.52169 6.1017 7.71 6.29L12 10.59L16.29 6.29C16.4783 6.1017 16.7337 5.99591 17 5.99591C17.2663 5.99591 17.5217 6.1017 17.71 6.29C17.8983 6.47831 18.0041 6.7337 18.0041 7C18.0041 7.2663 17.8983 7.5217 17.71 7.71L13.41 12L17.71 16.29Z" fill="white"/>
</svg>
